<?xml version="1.0" encoding="UTF-8" standalone="no"?>
<!-- Created with Inkscape (http://www.inkscape.org/) -->
<svg id="svg2" xmlns:rdf="http://www.w3.org/1999/02/22-rdf-syntax-ns#" xmlns="http://www.w3.org/2000/svg" xml:space="preserve" height="139.37" viewBox="0 0 1001.66 139.37067" width="1001.7" version="1.1" xmlns:cc="http://creativecommons.org/ns#" xmlns:dc="http://purl.org/dc/elements/1.1/"><metadata id="metadata8"><rdf:RDF><cc:Work rdf:about=""><dc:format>image/svg+xml</dc:format><dc:type rdf:resource="http://purl.org/dc/dcmitype/StillImage"/><dc:title/></cc:Work></rdf:RDF></metadata><g id="layer3" transform="translate(-188.18 261.99)"><g id="g1117" fill="white" transform="translate(0,-284)"><path id="path1020" d="m237.16 108.27h35.573v50.525h-11.343v-15.981c-2.0613 3.6079-4.64 6.7011-7.7333 9.7948-6.7013 5.6719-14.951 8.7652-23.2 8.7652-23.716 0-42.276-23.2-42.276-53.103s18.56-53.619 41.761-53.619c12.888-0.51507 24.231 6.7027 30.417 17.529v-15.982h10.827v32.481h-11.341c-1.032-4.64-3.0947-8.7645-5.672-12.374-5.156-6.7021-13.404-10.827-21.653-11.342-12.373 0-30.933 10.827-30.933 42.276 0 24.747 13.404 42.792 30.933 42.792 13.92-0.51613 25.263-10.827 27.84-24.231 0.516-2.5776 0.516-5.6713 0.516-8.2489h-24.232l0.516-9.2803"/><path id="path1022" d="m337.18 119.1-7.2173 1.0313c-23.716 3.0932-31.449 7.2176-31.449 17.013 0.516 8.7652 7.7333 14.952 15.983 14.952 11.341-0.51614 21.137-8.7656 22.684-20.108zm22.169 40.214h-22.169v-13.92c-5.156 9.7964-15.467 15.467-26.293 15.467-12.889 1.0308-24.232-9.2796-25.263-22.169v-1.5464c0-14.951 12.889-22.169 43.823-25.263l7.2173-0.5156v-7.7333c0-8.7645-6.7013-14.436-17.528-14.436s-16.499 3.6088-18.561 13.92h-11.857c1.0307-6.1864 4.124-11.858 8.764-15.982 5.672-4.6401 13.405-6.7027 20.623-6.7027 15.983 0 29.388 7.2183 29.388 26.809v42.792h10.827l1.0307 9.2803"/><path id="path1024" d="m391.83 95.899c3.6093-5.1557 10.312-15.983 24.748-15.983 10.311 0 15.981 5.1557 18.044 15.983 2.0627-3.6088 4.124-6.7025 7.2187-9.7957 4.64-4.1245 10.311-6.7027 16.497-6.7027 11.857 0 18.56 7.7339 18.56 21.139v48.978h10.827v9.2803h-21.653v-54.133c0-10.827-3.6093-15.983-11.343-15.983-13.404 0-20.623 15.983-20.623 21.654v39.182h11.343v9.2803h-22.684v-55.68c0-9.7959-3.6093-13.92-11.343-13.92-11.857 0-20.623 14.951-20.623 22.169v38.667h11.343v9.2803h-33.512v-9.2803h11.343v-59.805h-11.343v-9.2801h22.685l0.51467 14.951"/><path id="path1026" d="m521.23 126.32c0 12.889 9.796 23.199 22.169 24.232 13.404 0 21.653-11.859 21.653-30.934s-8.764-30.418-21.653-30.418c-11.343 0-22.685 12.373-22.685 23.716zm-21.653-73.725h21.653v44.854c3.0933-5.6713 11.857-17.014 25.263-17.014 17.529 0 30.933 18.045 30.933 40.73 0 21.138-14.436 39.182-30.933 39.182-13.92 0-20.623-9.2801-25.263-15.467v14.436h-22.169v-9.2803h10.827v-88.161h-10.311v-9.2801"/><path id="path1028" d="m584.04 52.592h22.169v97.441h10.311v9.2803h-32.996v-9.2803h11.343v-88.677h-10.827v-8.7645"/><path id="path1030" d="m680.97 113.94c0-7.2176-2.5773-13.92-7.7333-19.591-3.608-3.0932-8.2493-5.1557-12.889-4.6401-9.7947 0.5156-18.044 7.2183-20.621 16.498-0.516 2.5781-1.5467 5.1557-1.5467 7.7333zm11.343 23.716c-1.0307 4.6401-3.0933 8.2496-6.1867 11.857-6.1867 7.2188-14.951 11.343-24.747 11.343-21.139 0-36.089-16.497-36.089-40.213 0-22.685 14.951-40.214 34.027-40.214s34.543 14.952 34.543 42.276h-56.196c1.0307 11.342 3.6093 18.045 8.764 23.201 4.1253 3.6077 9.28 5.6708 14.436 5.6708 8.7653 0 14.436-4.124 18.56-13.405l12.889-0.5152"/><path id="path1032" d="m753.66 76.308-13.404 45.37h26.808zm-12.373-19.076h24.747l28.356 85.584h7.7333v16.497h-23.2l-6.7027-22.169h-36.089l-6.7027 22.169h-23.716v-16.497h7.7347l27.84-85.584"/><path id="path1034" d="m801.1 81.463h30.933v14.951h-7.7333l10.827 45.885 12.889-60.836h20.107l12.889 59.806 10.311-44.854h-7.7333v-14.951h30.933v14.951h-6.7013l-16.499 62.382h-20.623l-12.888-53.618-12.375 53.618h-20.621l-17.015-62.382h-6.7013v-14.951"/><path id="path1036" d="m969.17 122.71c-18.045 1.5463-29.903 3.0932-29.903 13.919 0 6.188 5.1547 10.312 12.888 10.312 9.2813 0 17.015-7.2172 17.529-16.498v-0.51573-7.2176zm18.56 21.654h6.7013v14.951h-24.231v-9.2803c-5.672 7.2172-14.436 10.827-23.716 10.827-15.467 0-27.325-10.31-27.325-24.232 0-22.684 25.779-25.262 50.525-27.324 0-11.858-4.124-15.467-13.92-15.467s-13.404 4.64-13.92 11.858v0.5156l-18.56-0.5156c1.0307-15.467 13.404-25.263 31.964-25.263 21.655 0 32.996 9.7959 32.996 27.325l-0.51467 36.605"/><path id="path1038" d="m1031 93.837c5.156-9.7953 10.827-13.92 19.591-13.92 3.0933 0 5.672 0.51507 8.7653 1.0308v18.045c-3.0933-0.51573-6.1866-1.0313-9.28-1.0313-9.796-0.51507-18.045 6.7027-18.56 15.983v29.903h9.28v14.951h-36.089v-14.951h7.7333v-47.432h-7.7333v-14.951h26.293v12.373"/><path id="path1040" d="m1117.1 110.85c0-8.7645-7.2173-15.467-15.467-15.467h-0.516c-8.764 0-15.983 6.7021-17.529 14.952zm20.107 22.684c-3.6094 17.015-17.529 27.325-36.089 27.325-21.653 0-37.636-17.013-37.636-40.729s15.983-40.729 37.636-40.729c11.859 0 23.2 5.6708 29.903 15.982 5.156 8.7645 8.2493 18.56 7.7333 28.871h-55.68c2.0614 20.107 14.951 21.138 18.56 21.138 7.2174 0.51626 13.92-4.6395 15.983-11.343l19.591-0.5156"/><g id="g1046" transform="matrix(1.3333 0 0 -1.3333 -168 198.24)"><path id="path1042" d="m1001.9 114.82c0.55 0.095 1.03 0.272 1.44 0.537 0.41 0.264 0.74 0.619 0.99 1.068 0.24 0.446 0.37 1.023 0.37 1.737 0 0.986-0.28 1.79-0.83 2.409-0.54 0.62-1.43 0.929-2.65 0.929h-6.462v-6.816h5.422c0.6 0 1.18 0.046 1.72 0.136zm-0.54 8.871c1.86 0 3.31-0.454 4.36-1.368 1.05-0.913 1.57-2.163 1.57-3.749 0-1.19-0.26-2.228-0.8-3.123s-1.4-1.507-2.59-1.835v-0.053c0.57-0.11 1.03-0.291 1.39-0.547 0.35-0.258 0.63-0.563 0.84-0.918s0.37-0.752 0.47-1.19 0.18-0.894 0.23-1.37c0.04-0.476 0.06-0.96 0.08-1.45 0.02-0.495 0.07-0.978 0.14-1.451 0.07-0.475 0.18-0.929 0.32-1.355 0.13-0.431 0.34-0.808 0.61-1.137h-2.9c-0.18 0.201-0.31 0.476-0.37 0.82-0.07 0.347-0.11 0.736-0.12 1.167-0.02 0.426-0.04 0.887-0.06 1.382-0.02 0.491-0.07 0.974-0.16 1.45-0.08 0.475-0.17 0.925-0.28 1.355-0.11 0.427-0.28 0.801-0.52 1.122-0.23 0.321-0.55 0.574-0.93 0.766-0.38 0.193-0.89 0.287-1.53 0.287h-6.352v-8.349h-2.601v19.546h9.203"/><path id="path1044" d="m999.43 129.08c-8.741 0-15.854-7.112-15.854-15.853 0-8.742 7.113-15.854 15.854-15.854 8.737 0 15.857 7.1122 15.857 15.854 0 8.741-7.12 15.853-15.857 15.853zm0-34.8c-10.446 0-18.946 8.5002-18.946 18.947 0 10.446 8.5 18.946 18.946 18.946 10.447 0 18.947-8.5 18.947-18.946 0-10.447-8.5-18.947-18.947-18.947"/></g></g></g></svg>
